# xmcd
#
# Track frame offsets: 
#        150
#        11381
#        24892
#        36971
#        47431
#        58337
#        72465
#        85513
#        100153
#        114131
#        129943
#        143512
#        154112
#        162866
#
# Disc length: 2347 seconds
#
# Revision: 9
# Processed by: cddbd v1.5.2PL0 Copyright (c) Steve Scherf et al.
# Submitted via: ExactAudioCopyFreeDBPlugin 1.0
#
DISCID=a009290e
DTITLE=Various Artist - Absolute Contry Gold CD 2
DYEAR=1998
DGENRE=Country
TTITLE0=The Kendalls - Heaven's Just A Sin Away
TTITLE1=Mel McDaniel - Baby's Got Her Blue Jeans On
TTITLE2=Merle Haggard - Okie From Muskogee
TTITLE3=The Everly Brothers - All I Have To Do Is Dream
TTITLE4=Jerry Wallace - Primrose Lane
TTITLE5=Bobby Bare - All American Boy
TTITLE6=T. Graham Brown - Brilliant Conversationalist
TTITLE7=Billie Joe Spears - Crazy
TTITLE8=Lee Greenwood - I.O.U.
TTITLE9=Boxcar Willie - Your Cheatin' Heart
TTITLE10=Conway Twitty - Baby's Gone
TTITLE11=Patsy Cline - Honky Tonk Merry Go Round
TTITLE12=Roger Miller - My Uncle Used To Love Me But She Died
TTITLE13=The Kandalls - Pittburg Stealers
EXTD=YEAR: 1998
EXTT0=
EXTT1=
EXTT2=
EXTT3=
EXTT4=
EXTT5=
EXTT6=
EXTT7=
EXTT8=
EXTT9=
EXTT10=
EXTT11=
EXTT12=
EXTT13=
PLAYORDER=
